<svg xmlns="http://www.w3.org/2000/svg" width="16" height="12" viewBox="0 0 16 12" fill="none">
<path d="M4 6H6L3.34375 8.65625L0.65625 6H2.65625C2.65625 4.54167 3.17708 3.29167 4.21875 2.25C5.28125 1.1875 6.54167 0.65625 8 0.65625C9.04167 0.65625 9.98958 0.9375 10.8438 1.5L9.875 2.46875C9.3125 2.15625 8.6875 2 8 2C6.89583 2 5.94792 2.39583 5.15625 3.1875C4.38542 3.95833 4 4.89583 4 6ZM12.6562 3.34375L15.3438 6H13.3438C13.3438 7.45833 12.8125 8.71875 11.75 9.78125C10.7083 10.8229 9.45833 11.3438 8 11.3438C6.95833 11.3438 6.01042 11.0625 5.15625 10.5L6.125 9.53125C6.6875 9.84375 7.3125 10 8 10C9.10417 10 10.0417 9.61458 10.8125 8.84375C11.6042 8.05208 12 7.10417 12 6H10L12.6562 3.34375Z" fill="black"/>
</svg>